<svg xmlns="http://www.w3.org/2000/svg" width="20" height="16" viewBox="0 0 20 16" fill="none" class="operation-item"><path d="M9.28653 6.22904C9.19849 6.16422 9.09538 6.15216 8.97749 6.19286C8.85961 6.23266 8.78514 6.30592 8.75348 6.41205C8.70434 6.57697 8.72936 6.8043 8.83036 7.09675C8.93076 7.38769 9.05136 7.58397 9.19005 7.68316C9.2811 7.74858 9.38602 7.76125 9.50391 7.72115C9.62179 7.68075 9.69415 7.60598 9.72249 7.49985C9.77254 7.33493 9.74691 7.1076 9.64561 6.81545C9.54642 6.52571 9.42642 6.32944 9.28653 6.22904Z" fill="url(#paint0_linear_123_723)"></path><path d="M13.9787 7.74179C13.8883 7.67757 13.7854 7.66641 13.6679 7.70711C13.55 7.74721 13.4764 7.82048 13.4475 7.92811C13.3986 8.09213 13.4249 8.32126 13.5247 8.61161C13.6257 8.90376 13.7447 9.09913 13.8846 9.19922C13.9721 9.26344 14.0755 9.27641 14.1925 9.2354C14.311 9.1953 14.3851 9.12113 14.418 9.01561C14.4656 8.8516 14.4406 8.62336 14.3402 8.33121C14.2395 8.04027 14.1195 7.84309 13.9787 7.74179Z" fill="url(#paint1_linear_123_723)"></path><path d="M19.2377 9.75786L19.065 9.25527L18.5467 7.74899L18.2015 6.7441C17.3687 7.02992 16.4627 6.58793 16.1769 5.75549C15.8905 4.92336 16.3337 4.01707 17.1649 3.73064L16.8203 2.72636L16.6467 2.22437L16.1293 0.717484C15.9375 0.162127 15.3327 -0.132435 14.7789 0.0578096L5.19792 3.35287L5.79609 5.09763C5.84373 5.23602 5.77077 5.38767 5.63178 5.43621L5.12888 5.60836C4.9908 5.6566 4.83975 5.58123 4.7912 5.44405L4.19334 3.69868L0.717983 4.89352C0.163832 5.08466 -0.133142 5.68766 0.058007 6.24332L0.403221 7.2479L0.749038 8.25219L1.09485 9.25678C1.92789 8.97096 2.83298 9.41325 3.11971 10.246C3.40553 11.0772 2.96263 11.9835 2.1308 12.2702L2.47631 13.2739L2.82122 14.2788L3.16704 15.2828C3.35789 15.8375 3.96149 16.1333 4.51714 15.9416L8.09893 14.7109L7.44498 12.9576C7.40036 12.8175 7.47664 12.6688 7.61593 12.6233L8.12214 12.4614C8.26113 12.4162 8.41218 12.4933 8.4562 12.6335L9.10321 14.3656L18.5787 11.108C19.1331 10.9168 19.428 10.3108 19.2377 9.75786ZM5.87267 8.456L5.35531 6.94882C5.30827 6.81043 5.38123 6.65968 5.52022 6.61144L6.02312 6.43929C6.16121 6.39135 6.31165 6.46431 6.35989 6.60421L6.87726 8.10958C6.9252 8.24827 6.85194 8.39992 6.71295 8.44816L6.21035 8.62062C6.07166 8.66886 5.92061 8.59348 5.87267 8.456ZM7.74979 11.461L7.2469 11.6329C7.10821 11.6811 6.95806 11.6069 6.90952 11.4689L6.39095 9.96198C6.34391 9.82299 6.41778 9.67284 6.55587 9.6246L7.05846 9.45215C7.19655 9.40391 7.3488 9.47868 7.39644 9.61706L7.91411 11.1233C7.96175 11.2611 7.88818 11.4137 7.74979 11.461ZM8.88402 8.39781C8.62896 8.3553 8.41218 8.24375 8.23279 8.06345C8.0531 7.88316 7.92285 7.67211 7.83904 7.42941C7.75552 7.18911 7.72989 6.94339 7.76035 6.68983C7.7911 6.43778 7.89391 6.21648 8.06848 6.02594C8.24425 5.8363 8.47911 5.68947 8.77337 5.58937C9.20602 5.43983 9.58953 5.44616 9.92358 5.60686C10.2582 5.76906 10.4952 6.05548 10.6378 6.46703C10.781 6.88098 10.7687 7.25454 10.6044 7.58829C10.4397 7.92054 10.141 8.16144 9.70771 8.31068C9.41406 8.41108 9.13999 8.44032 8.88402 8.39781ZM10.3635 11.2234L11.4437 4.66981L12.511 4.30319L11.4223 10.8583L10.3635 11.2234ZM15.299 9.10181C15.1344 9.43617 14.835 9.67767 14.3996 9.8266C14.1075 9.9273 13.8322 9.95685 13.5765 9.91374C13.319 9.87002 13.102 9.75817 12.9232 9.57877C12.7468 9.39878 12.616 9.18834 12.533 8.94563C12.4495 8.70353 12.4218 8.45751 12.4522 8.20606C12.4815 7.95491 12.5846 7.73362 12.7601 7.54066C12.9367 7.34921 13.1698 7.20298 13.462 7.10228C13.8967 6.95334 14.2826 6.95937 14.617 7.12097C14.9519 7.28438 15.1892 7.57111 15.3321 7.98295C15.4738 8.3957 15.4627 8.76865 15.299 9.10181Z" fill="url(#paint2_linear_123_723)"></path><defs><linearGradient id="paint0_linear_123_723" x1="8.78189" y1="7.94084" x2="10.3127" y2="6.85899" gradientUnits="userSpaceOnUse"><stop stop-color="#FF0852"></stop><stop offset="1" stop-color="#FF90B1"></stop></linearGradient><linearGradient id="paint1_linear_123_723" x1="13.4763" y1="9.45588" x2="15.0075" y2="8.37491" gradientUnits="userSpaceOnUse"><stop stop-color="#FF0852"></stop><stop offset="1" stop-color="#FF90B1"></stop></linearGradient><linearGradient id="paint2_linear_123_723" x1="0.999999" y1="18" x2="16.8902" y2="-2.94531" gradientUnits="userSpaceOnUse"><stop stop-color="#FF0852"></stop><stop offset="1" stop-color="#FF90B1"></stop></linearGradient></defs></svg>